<?xml version="1.0" standalone="no"?>
<!DOCTYPE svg PUBLIC "-//W3C//DTD SVG 20010904//EN"
 "http://www.w3.org/TR/2001/REC-SVG-20010904/DTD/svg10.dtd">
<svg version="1.0" xmlns="http://www.w3.org/2000/svg"
 width="150.000000pt" height="150.000000pt" viewBox="0 0 150.000000 150.000000"
 preserveAspectRatio="xMidYMid meet">
<metadata>
Created by potrace 1.14, written by Peter Selinger 2001-2017
</metadata>
<g transform="translate(0.000000,150.000000) scale(0.100000,-0.100000)"
fill="#000000" stroke="none">
<path d="M943 1285 c-3 -9 -3 -35 -1 -58 l5 -42 -38 0 c-36 0 -88 -28 -96 -51
-2 -5 26 -10 62 -11 36 -2 81 -10 100 -18 33 -13 54 -39 42 -51 -3 -3 -153 -6
-334 -7 l-328 -2 3 -40 c6 -65 40 -141 89 -195 56 -62 109 -94 191 -115 53
-14 74 -15 136 -5 63 11 77 10 104 -4 35 -18 130 -39 142 -31 4 3 -10 24 -31
47 -21 24 -39 46 -39 50 0 5 21 34 46 67 49 63 84 156 84 221 0 58 -36 159
-75 213 -37 49 -52 57 -62 32z m-319 -348 c8 -12 7 -21 -5 -32 -21 -21 -49 -9
-49 20 0 36 34 44 54 12z m120 0 c8 -12 7 -21 -5 -32 -21 -21 -49 -9 -49 20 0
36 34 44 54 12z m126 -10 c0 -17 -20 -37 -37 -37 -7 0 -17 9 -23 19 -7 15 -6
23 6 35 12 12 20 13 35 6 10 -6 19 -16 19 -23z m-340 -117 c0 -16 -4 -30 -8
-30 -5 0 -21 14 -37 30 l-29 30 37 0 c34 0 37 -2 37 -30z m77 -22 c6 -29 9
-54 8 -56 -2 -2 -16 3 -33 12 -20 10 -31 25 -36 47 -7 38 -1 49 28 49 19 0 24
-8 33 -52z m68 25 c4 -16 13 -43 21 -62 18 -40 15 -45 -19 -32 -29 11 -57 58
-57 96 0 20 5 25 25 25 19 0 26 -6 30 -27z m85 8 c0 -10 11 -35 25 -55 20 -29
22 -38 11 -42 -44 -17 -88 20 -101 84 -6 31 -6 32 29 32 28 0 36 -4 36 -19z"/>
<path d="M570 515 c0 -98 1 -105 20 -105 17 0 20 7 20 39 0 40 25 80 41 64 4
-4 9 -28 11 -53 3 -38 7 -46 26 -48 21 -3 22 0 22 55 0 65 -11 83 -50 83 -14
0 -31 -5 -38 -12 -9 -9 -12 -2 -12 35 0 40 -3 47 -20 47 -19 0 -20 -7 -20
-105z"/>
<path d="M930 514 c0 -104 0 -105 23 -102 21 3 22 8 25 106 l3 102 -26 0 -25
0 0 -106z"/>
<path d="M285 587 c4 -13 17 -57 29 -98 19 -63 26 -74 47 -77 21 -3 26 3 40
50 l15 53 15 -50 c12 -41 19 -51 40 -53 24 -3 27 2 48 80 13 46 25 91 28 101
5 15 1 18 -23 15 -26 -3 -30 -8 -39 -50 -5 -25 -13 -49 -16 -52 -3 -3 -11 19
-18 49 -11 47 -16 55 -35 55 -20 0 -25 -8 -35 -56 -7 -30 -15 -53 -17 -51 -3
3 -10 27 -17 53 -10 43 -16 49 -40 52 -25 3 -27 1 -22 -21z"/>
<path d="M755 527 c-8 -12 -15 -33 -15 -47 0 -14 7 -35 15 -47 13 -19 25 -22
75 -21 l60 1 0 67 0 67 -60 1 c-50 1 -62 -2 -75 -21z m90 -47 c0 -18 -6 -26
-23 -28 -13 -2 -25 3 -28 12 -10 26 4 48 28 44 17 -2 23 -10 23 -28z"/>
<path d="M1032 534 c-28 -20 -31 -83 -4 -107 20 -18 78 -22 102 -7 21 13 4 25
-38 25 -19 0 -37 6 -39 13 -3 8 10 12 46 12 44 0 51 3 51 20 0 50 -71 77 -118
44z m68 -24 c0 -5 -12 -10 -26 -10 -14 0 -23 4 -19 10 3 6 15 10 26 10 10 0
19 -4 19 -10z"/>
<path d="M547 363 c-4 -3 -7 -17 -7 -29 0 -28 29 -47 51 -33 11 7 10 10 -8 15
-28 8 -30 34 -3 34 11 0 20 5 20 10 0 11 -43 14 -53 3z"/>
<path d="M630 335 c0 -24 5 -35 15 -35 8 0 15 7 15 15 0 8 5 15 10 15 6 0 10
-7 10 -15 0 -8 5 -15 10 -15 6 0 10 16 10 35 0 37 -13 47 -25 18 -6 -17 -7
-17 -16 0 -16 28 -29 20 -29 -18z"/>
<path d="M752 345 c-17 -38 -16 -41 23 -41 19 0 35 3 35 8 0 18 -24 58 -35 58
-6 0 -17 -11 -23 -25z"/>
<path d="M840 360 c0 -5 5 -10 10 -10 6 0 10 -11 10 -25 0 -14 5 -25 10 -25 6
0 10 10 10 23 0 13 5 28 12 35 9 9 5 12 -20 12 -18 0 -32 -4 -32 -10z"/>
<path d="M710 253 c-21 -8 -30 -24 -30 -53 0 -33 17 -50 50 -50 14 0 31 5 38
12 20 20 14 65 -10 82 -24 17 -25 17 -48 9z m40 -28 c19 -23 8 -50 -20 -50
-28 0 -39 27 -20 50 16 19 24 19 40 0z"/>
<path d="M570 200 l0 -50 34 0 c41 0 56 16 51 55 -2 17 -4 33 -4 38 -1 4 -19
7 -41 7 l-40 0 0 -50z m58 22 c2 -7 -6 -12 -17 -12 -21 0 -27 11 -14 24 9 9
26 2 31 -12z m3 -37 c0 -5 -9 -11 -21 -13 -20 -3 -27 8 -13 22 10 9 34 3 34
-9z"/>
<path d="M798 240 c18 -8 22 -17 22 -50 0 -22 5 -40 10 -40 6 0 10 18 10 40 0
27 6 42 18 49 13 8 6 10 -33 10 -40 0 -45 -2 -27 -9z"/>
</g>
</svg>
